<?xml version="1.0" encoding="UTF-8"?>
<svg width="88px" height="88px" viewBox="0 0 88 88" version="1.1" xmlns="http://www.w3.org/2000/svg" xmlns:xlink="http://www.w3.org/1999/xlink">
    <title>编组 6</title>
    <defs>
        <linearGradient x1="26.6470832%" y1="15.9240095%" x2="82.2326844%" y2="84.9698011%" id="linearGradient-1">
            <stop stop-color="#4DB5FF" offset="0%"></stop>
            <stop stop-color="#227FFF" stop-opacity="0.85" offset="100%"></stop>
        </linearGradient>
    </defs>
    <g id="页面-1" stroke="none" stroke-width="1" fill="none" fill-rule="evenodd">
        <g id="乘车小程序-单卡" transform="translate(-331.000000, -354.000000)">
            <g id="编组-27" transform="translate(307.000000, 330.000000)">
                <g id="编组-6" transform="translate(24.000000, 24.000000)">
                    <rect id="矩形" fill="url(#linearGradient-1)" x="0" y="0" width="88" height="88"></rect>
                    <path d="M65,43.5400697 C65.5522847,43.5400697 66,43.9877849 66,44.5400697 L66,57.8571429 C66,60.6185666 63.7614237,62.8571429 61,62.8571429 L60.634,62.8570697 L60.6341463,65.7229965 C60.6341463,67.1037084 59.5148582,68.2229965 58.1341463,68.2229965 L57.7682927,68.2229965 C56.3875808,68.2229965 55.2682927,67.1037084 55.2682927,65.7229965 L55.268,62.8570697 L32.731,62.8570697 L32.7317073,65.7229965 C32.7317073,67.1037084 31.6124192,68.2229965 30.2317073,68.2229965 L29.8658537,68.2229965 C28.4851418,68.2229965 27.3658537,67.1037084 27.3658537,65.7229965 L27.365,62.8570697 L27,62.8571429 C24.2385763,62.8571429 22,60.6185666 22,57.8571429 L22,44.5400697 C22,43.9877849 22.4477153,43.5400697 23,43.5400697 L65,43.5400697 Z M29.5121951,49.9790941 C27.7341076,49.9790941 26.2926829,51.4205188 26.2926829,53.1986063 C26.2926829,54.9766938 27.7341076,56.4181185 29.5121951,56.4181185 C31.2902826,56.4181185 32.7317073,54.9766938 32.7317073,53.1986063 C32.7317073,51.4205188 31.2902826,49.9790941 29.5121951,49.9790941 Z M58.4878049,49.9790941 C56.7097174,49.9790941 55.2682927,51.4205188 55.2682927,53.1986063 C55.2682927,54.9766938 56.7097174,56.4181185 58.4878049,56.4181185 C60.2658924,56.4181185 61.7073171,54.9766938 61.7073171,53.1986063 C61.7073171,51.4205188 60.2658924,49.9790941 58.4878049,49.9790941 Z M48.8292683,18.8571429 C50.01466,18.8571429 50.9756098,19.8180927 50.9756098,21.0034843 L50.9756098,39.2473868 C50.9756098,40.4327784 50.01466,41.3937282 48.8292683,41.3937282 C47.6438766,41.3937282 46.6829268,40.4327784 46.6829268,39.2473868 L46.6829268,21.0034843 C46.6829268,19.8180927 47.6438766,18.8571429 48.8292683,18.8571429 Z M56.3414634,28.5156794 C57.5268551,28.5156794 58.4878049,29.4766292 58.4878049,30.6620209 L58.4878049,39.2473868 C58.4878049,40.4327784 57.5268551,41.3937282 56.3414634,41.3937282 C55.1560718,41.3937282 54.195122,40.4327784 54.195122,39.2473868 L54.195122,30.6620209 C54.195122,29.4766292 55.1560718,28.5156794 56.3414634,28.5156794 Z M63.8536585,33.8815331 C65.0390502,33.8815331 66,34.8424829 66,36.0278746 L66,39.2473868 C66,40.4327784 65.0390502,41.3937282 63.8536585,41.3937282 C62.6682669,41.3937282 61.7073171,40.4327784 61.7073171,39.2473868 L61.7073171,36.0278746 C61.7073171,34.8424829 62.6682669,33.8815331 63.8536585,33.8815331 Z M42.4634146,18.8571429 C43.0156994,18.8571429 43.4634146,19.3048581 43.4634146,19.8571429 L43.4634146,40.3937282 C43.4634146,40.946013 43.0156994,41.3937282 42.4634146,41.3937282 L23,41.3937282 C22.4477153,41.3937282 22,40.946013 22,40.3937282 L22,23.8571429 C22,21.0957191 24.2385763,18.8571429 27,18.8571429 L42.4634146,18.8571429 Z M38.7073171,23.6864111 L29.8292683,23.6864111 C28.2315874,23.6864111 26.9256074,24.9353311 26.834361,26.5101384 L26.8292683,26.6864111 L26.8292683,35.5644599 C26.8292683,36.0772958 27.2153085,36.4999671 27.7126472,36.5577322 L27.8292683,36.5644599 L38.7073171,36.5644599 C39.2201529,36.5644599 39.6428242,36.1784197 39.7005893,35.6810811 L39.7073171,35.5644599 L39.7073171,24.6864111 C39.7073171,24.1341264 39.2596018,23.6864111 38.7073171,23.6864111 Z M35.4878049,26.9059233 C36.0400896,26.9059233 36.4878049,27.3536386 36.4878049,27.9059233 L36.4878049,32.3449477 C36.4878049,32.8972325 36.0400896,33.3449477 35.4878049,33.3449477 L31.0487805,33.3449477 C30.4964957,33.3449477 30.0487805,32.8972325 30.0487805,32.3449477 L30.0487805,28.9059233 C30.0487805,27.8013538 30.944211,26.9059233 32.0487805,26.9059233 L35.4878049,26.9059233 Z M63.8536585,18.8571429 C65.0390502,18.8571429 66,19.8180927 66,21.0034843 L66,29.5888502 C66,30.7742418 65.0390502,31.7351916 63.8536585,31.7351916 C62.6682669,31.7351916 61.7073171,30.7742418 61.7073171,29.5888502 L61.7073171,21.0034843 C61.7073171,19.8180927 62.6682669,18.8571429 63.8536585,18.8571429 Z M56.3414634,18.8571429 C57.5268551,18.8571429 58.4878049,19.8180927 58.4878049,21.0034843 L58.4878049,24.2229965 C58.4878049,25.4083882 57.5268551,26.369338 56.3414634,26.369338 C55.1560718,26.369338 54.195122,25.4083882 54.195122,24.2229965 L54.195122,21.0034843 C54.195122,19.8180927 55.1560718,18.8571429 56.3414634,18.8571429 Z" id="形状结合" fill="#FFFFFF"></path>
                </g>
            </g>
        </g>
    </g>
</svg>